<?xml version="1.0" encoding="utf-8"?>
<!-- Generator: Adobe Illustrator 23.1.0, SVG Export Plug-In . SVG Version: 6.00 Build 0)  -->
<svg version="1.1" id="koinforge-logotype" xmlns="http://www.w3.org/2000/svg" xmlns:xlink="http://www.w3.org/1999/xlink" x="0px"
	 y="0px" fill="currentColor" viewBox="0 0 291.2473 33.0566" enable-background="new 0 0 291.2473 33.0566" xml:space="preserve">
<g>
	<path d="M7.8516,16.5283l16.5283,16.5283h-7.7686L2.3145,18.8418L0,16.5693l2.3145-2.3135L16.6113,0h7.7686L7.8516,16.5283z
		 M2.3145,14.2559L16.6113,0L2.3145,14.2559z M16.6113,33.0566L2.3145,18.8418L16.6113,33.0566z"/>
	<path d="M56.6353,4.876c3.2646,3.2227,4.918,7.1064,4.918,11.6523c0,4.5859-1.6533,8.4707-4.918,11.6523
		c-3.2227,3.2227-7.0654,4.876-11.6523,4.876c-4.5859,0-8.4297-1.6533-11.6523-4.876s-4.876-7.0664-4.876-11.6523
		c0-4.5459,1.6533-8.4297,4.876-11.6523C36.5122,1.6523,40.397,0,44.9829,0C49.5698,0,53.4126,1.6523,56.6353,4.876z
		 M37.1733,8.7598c-2.1484,2.1484-3.1816,4.752-3.1816,7.7686s1.0332,5.6611,3.1816,7.8096s4.793,3.1816,7.8096,3.1816
		s5.6201-1.0332,7.7686-3.1816c2.1904-2.1904,3.2227-4.793,3.2227-7.8096s-1.0742-5.6201-3.2227-7.7686s-4.752-3.2227-7.7686-3.2227
		S39.3638,6.5693,37.1733,8.7598z"/>
	<path d="M75.1748,27.5195l-5.4951,5.5371V0l5.4951,5.4541V27.5195z"/>
	<path d="M112.5386,0v32.9736v0.041v0.042l-27.4785-24.71V0l21.9824,19.792V0H112.5386z"/>
	<path d="M148.7669,0v5.5371h-16.5283L126.7425,0H148.7669z M132.2386,16.4863h16.5283v5.5791h-16.5283v10.9912h-5.4961V16.4863
		H132.2386z"/>
	<path d="M185.1433,4.876c3.2646,3.2227,4.917,7.1064,4.917,11.6523c0,4.5859-1.6523,8.4707-4.917,11.6523
		c-3.2236,3.2227-7.0664,4.876-11.6523,4.876c-4.5869,0-8.4297-1.6533-11.6523-4.876c-3.2236-3.2227-4.876-7.0664-4.876-11.6523
		c0-4.5459,1.6523-8.4297,4.876-11.6523C165.0203,1.6523,168.9041,0,173.491,0C178.0769,0,181.9197,1.6523,185.1433,4.876z
		 M165.6814,8.7598c-2.1494,2.1484-3.1816,4.752-3.1816,7.7686s1.0322,5.6611,3.1816,7.8096
		c2.1484,2.1484,4.793,3.1816,7.8096,3.1816s5.6191-1.0332,7.7676-3.1816c2.1904-2.1904,3.2236-4.793,3.2236-7.8096
		s-1.0742-5.6201-3.2236-7.7686c-2.1484-2.1484-4.751-3.2227-7.7676-3.2227S167.8709,6.5693,165.6814,8.7598z"/>
	<path d="M213.9718,21.1973l6.7773,11.8594h-6.3223L204.84,16.4863l4.917,0.042c1.4883,0,2.7686-0.5371,3.8428-1.6113
		c1.1162-1.0752,1.6533-2.3975,1.6533-3.9258c0-1.4873-0.5371-2.7686-1.6533-3.8428c-1.0742-1.0742-2.3545-1.6113-3.8428-1.6113
		h-11.0322l-0.6201-0.6201L195.2541,0h14.5029c3.0166,0,5.6201,1.0742,7.7686,3.2227c2.1484,2.1904,3.2236,4.752,3.2236,7.7686
		c0,2.3135-0.6201,4.3799-1.9424,6.2393C217.5256,19.0898,215.9142,20.4121,213.9718,21.1973z"/>
	<path d="M253.525,23.8008l5.4951,1.8184c-0.7441,1.1152-1.6113,2.1484-2.6445,3.0576c-0.9912,0.9092-2.0664,1.6934-3.2646,2.3545
		c-1.1562,0.6611-2.3965,1.1572-3.7598,1.4883c-1.3223,0.3721-2.6855,0.5371-4.1318,0.5371c-4.5869,0-8.4297-1.6533-11.6523-4.876
		c-3.2236-3.2227-4.876-7.0664-4.876-11.6523c0-4.5459,1.6113-8.4297,4.876-11.6523C236.7486,1.6113,240.6324,0,245.2193,0
		c2.2725,0,4.4209,0.4131,6.4453,1.2803c1.9834,0.8682,3.7607,2.0664,5.2891,3.5957l-3.9668,3.8838
		c-2.1484-2.1484-4.71-3.2227-7.7676-3.2227c-3.0166,0-5.6201,1.0322-7.8096,3.2227c-2.1494,2.1484-3.1816,4.752-3.1816,7.7686
		s1.0322,5.6611,3.1816,7.8096c2.1484,2.1484,4.793,3.1816,7.8096,3.1816c1.6523,0,3.1816-0.3311,4.5859-0.9502
		C251.2105,25.9082,252.4498,24.999,253.525,23.8008z M245.2193,13.8008h13.8008l-5.4951,5.4961h-8.3057V13.8008z"/>
	<path d="M291.2473,0v5.5371H274.719L269.2239,0H291.2473z M274.719,13.8008h16.5283v5.4961H274.719h-5.4951v-5.4961H274.719z
		 M274.719,27.5195h16.5283v5.5371h-22.0234v-0.4551L274.719,27.5195z"/>
</g>
</svg>
