<?xml version="1.0" encoding="utf-8"?>
<!-- Generator: Adobe Illustrator 23.1.0, SVG Export Plug-In . SVG Version: 6.00 Build 0)  -->
<svg version="1.1" class="inline-svg absolute bottom-0 left-0 w-[200%] z-10 max-w-none animate-stretch [transform:translateZ(0)] text-base-100" id="wave_x5F_divider" xmlns="http://www.w3.org/2000/svg" xmlns:xlink="http://www.w3.org/1999/xlink" x="0px"
	 y="0px" viewBox="0 0 599 26.351" enable-background="new 0 0 599 26.351" xml:space="preserve">
<path opacity="0.9" fill="currentColor" d="M599,15.0886c-14.342,0.9286-28.4419,1.9489-42.3936,2.9592
	C512.7949,21.2197,467.4922,24.5,419,24.5c-49.9814,0-95.4717-3.3301-139.4634-6.5508
	C235.5264,14.7275,190.0186,11.3955,140,11.3955c-50.4937,0-96.0283,3.1726-140,6.361v1.0023
	c43.9765-3.189,89.5147-6.3633,140-6.3633c49.9814,0,95.4717,3.3301,139.4634,6.5508C323.4736,22.168,368.9814,25.5,419,25.5
	c48.5283,0,93.8496-3.2812,137.6787-6.4551c13.9283-1.0087,28.0045-2.0273,42.3213-2.9545V15.0886z"/>
<path opacity="0.8" fill="currentColor" d="M599,13.4565c-14.343,0.9958-28.4438,2.09-42.3965,3.1733
	C512.793,20.0322,467.4902,23.5508,419,23.5508c-49.9805,0-95.4697-3.5713-139.4609-7.0254
	C235.5283,13.0693,190.0195,9.4961,140,9.4961c-50.494,0-96.0283,3.4026-140,6.8216v1.0031
	c43.9768-3.4199,89.5148-6.8246,140-6.8246c49.9805,0,95.4692,3.5713,139.4609,7.0254
	c44.0107,3.4561,89.5195,7.0293,139.5391,7.0293c48.5293,0,93.8516-3.5195,137.6816-6.9238
	c13.9272-1.0815,28.0025-2.1738,42.3184-3.1681V13.4565z"/>
<path opacity="0.68" fill="currentColor" d="M599,11.8247c-14.3437,1.0632-28.4452,2.2314-42.3984,3.3882
	C512.791,18.8447,467.4893,22.6006,419,22.6006c-49.9795,0-95.4678-3.8125-139.458-7.5C235.5308,11.4111,190.021,7.5967,140,7.5967
	c-50.494,0-96.0285,3.6317-140,7.2821v1.0039c43.9767-3.6517,89.5151-7.286,140-7.286c49.979,0,95.4678,3.8125,139.458,7.5
	c44.0117,3.6895,89.5215,7.5039,139.542,7.5039c48.5303,0,93.8535-3.7578,137.6836-7.3916
	c13.9267-1.1544,28.0013-2.3203,42.3164-3.3817V11.8247z"/>
<path opacity="0.57" fill="currentColor" d="M599,10.1935c-14.3447,1.1304-28.4472,2.3726-42.4014,3.6024
	C512.7891,17.6582,467.4883,21.6514,419,21.6514c-49.9775,0-95.4658-4.0537-139.4556-7.9746
	C235.5327,9.7539,190.0225,5.6982,140,5.6982c-50.4945,0-96.0287,3.8616-140,7.7436v1.0039
	c43.9769-3.8826,89.5156-7.7475,140-7.7475c49.9775,0,95.4653,4.0537,139.4556,7.9746c44.0122,3.9229,89.522,7.9785,139.5444,7.9785
	c48.5322,0,93.8555-3.9951,137.6865-7.8584c13.9257-1.2275,27.9994-2.4673,42.3135-3.5959V10.1935z"/>
<path opacity="0.45" fill="currentColor" d="M599,8.562c-14.3457,1.198-28.4492,2.5144-42.4043,3.8179
	C512.7871,16.4707,467.4863,20.7021,419,20.7021c-49.9766,0-95.4639-4.2959-139.4531-8.4492
	C235.5347,8.0967,190.0234,3.7988,140,3.7988c-50.4948,0-96.0287,4.0916-140,8.2042v1.0048
	c43.9772-4.1135,89.5156-8.2089,140-8.2089c49.9766,0,95.4634,4.2949,139.4531,8.4492
	c44.0127,4.1562,89.5234,8.4541,139.5469,8.4541c48.5332,0,93.8574-4.2334,137.6895-8.3271
	c13.9247-1.3004,27.9974-2.6137,42.3105-3.8094V8.562z"/>
<path opacity="0.32" fill="currentColor" d="M599,6.9299c-14.3465,1.2652-28.4506,2.6555-42.4062,4.032
	c-43.8086,4.3213-89.1084,8.79-137.5938,8.79c-49.9756,0-95.4619-4.5361-139.4502-8.9238
	C235.5366,6.4385,190.0249,1.8994,140,1.8994c-50.4949,0-96.0289,4.3216-140,8.6647v1.0048
	c43.9772-4.3445,89.5159-8.6696,140-8.6696c49.9751,0,95.4614,4.5361,139.4502,8.9238C323.4639,16.2129,368.9756,20.752,419,20.752
	c48.5342,0,93.8594-4.4707,137.6914-8.7949C570.6155,10.5835,584.6876,9.1964,599,7.9337V6.9299z"/>
<path opacity="0.19" fill="currentColor" d="M599,5.298c-14.3474,1.3326-28.4525,2.797-42.4092,4.2469
	C512.7832,14.0967,467.4844,18.8027,419,18.8027c-49.9736,0-95.46-4.7783-139.4478-9.3984C235.5386,4.7803,190.0264,0,140,0
	C89.5046,0,43.9708,4.5514,0,9.1261v1.0049C43.9774,5.5556,89.5164,1,140,1c49.9736,0,95.4595,4.7783,139.4478,9.3984
	c44.0142,4.624,89.5259,9.4043,139.5522,9.4043c48.5361,0,93.8613-4.709,137.6943-9.2627
	C570.6176,9.0934,584.6887,7.6324,599,6.3025V5.298z"/>
<path fill="currentColor" d="M0,17.6075v1.0023c43.9765-3.189,89.5147-6.3633,140-6.3633c49.9814,0,95.4717,3.3301,139.4634,6.5508
	C323.4736,22.019,368.9814,25.351,419,25.351c48.5283,0,93.8496-3.2812,137.6787-6.4551
	c13.9283-1.0087,28.0045-2.0273,42.3213-2.9545V26.351H0v-7.7412"/>
</svg>
